<svg class="icon" style="width: 1em; height: 1em;vertical-align: middle;fill: currentColor;overflow: hidden;" viewBox="0 0 1024 1024" version="1.1" xmlns="http://www.w3.org/2000/svg"><path d="M361.513 959.011c-54.792 0-96.562-26.617-135.434-86.304-35.874-55.198-74.079-165.396 73.095-283.314 92.661-74.246 165.291-101.683 242.184-130.732 28.626-10.814 58.13-21.96 89.623-35.877l0.545-13.078c0.09-2.149 1.141-17.961 12.454-38.759 10.693-19.659 33.131-47.987 79.296-71.303 18.718-9.411 37.164-15.682 54.834-18.645 7.908-1.335 15.894-2.014 23.727-2.014 1.517 0 3.041 0.025 4.566 0.076 0.578-10.073 0.577-20.46-0.004-30.958-0.954-17.803-3.213-33.357-6.196-42.686l-10.111-30.972 116.787 8.669 0.282 20.032c0.161 15.648-2.063 36.995-6.262 60.13-3.268 17.631-7.595 35.734-12.565 52.601 7.884 8.583 14.898 18.753 20.88 30.283 8.147 16.073 14.104 34.181 17.732 53.872 8.725 47.021-3.816 81.408-15.874 101.975-10.782 18.392-24.036 30.528-29.047 33.974l0.043 0.058-12.961 9.77-9.619-7.035c-28.5 87.899-81.465 172.02-153.563 243.749-74.305 73.926-163.524 129.313-258.013 160.171-33.631 10.979-61.892 16.317-86.399 16.317z m281.743-542.595l14.125 7.598-11.006 5.015c-35.802 16.312-68.832 28.791-100.775 40.858-75.979 28.703-147.744 55.813-238.922 128.871-139.796 112.007-104.2 215.614-70.54 267.405 36.906 56.668 74.402 80.848 125.375 80.848 23.221 0 50.265-5.144 82.675-15.726 187.833-61.345 351.148-223.764 406.389-404.158l2.579-8.421 6.893 5.481c1.078 0.857 1.906 1.479 2.42 1.864 0.189 0.143 0.417 0.313 0.663 0.519l5.868 4.292 6.635-4.999c5.986-4.686 54.077-45.153 39.512-123.649-3.421-18.567-9.009-35.582-16.61-50.578-6.023-11.609-13.177-21.707-21.237-29.96l-2.478-2.537 1.028-3.394c5.265-17.388 9.845-36.279 13.247-54.632 4.063-22.389 6.219-42.931 6.065-57.82l-0.127-9.024-87.982-6.537 4.569 13.996c3.342 10.448 5.738 26.674 6.76 45.723 0.724 13.068 0.582 25.994-0.42 38.408l-0.48 5.958-5.96-0.458c-10.351-0.796-20.903-0.301-31.42 1.476-16.491 2.765-33.791 8.661-51.425 17.527-42.926 21.679-63.78 47.595-73.714 65.517-10.486 18.918-11.395 33.205-11.444 34.191l-0.005 0.135-0.258 6.211zM310.905 900.422l-23.223-23.875c-38.959-40.053-55.845-81.452-50.191-123.049l1.131-8.319 57.556 28.878-1.706 4.961c-10.933 31.794-9.951 61.536 3.001 90.926l13.432 30.478z m-62.324-136.821c-1.463 27.62 8.229 55.355 28.902 82.787-4.26-21.563-2.925-43.74 4.012-66.272l-32.914-16.515z m72.021-35.073l-62.363-31.217 3.716-5.643c57.469-87.254 198.909-155.521 283.417-196.31 7.666-3.7 14.849-7.167 21.441-10.394l33.728-16.511-26.904 26.198c-24.705 24.058-55.883 49.329-88.891 76.084-57.333 46.472-122.315 99.143-161.163 153.613l-2.981 4.18z m-44.806-35.847l41.035 20.54c40.038-54.28 103.874-106.023 160.358-151.807 20.26-16.422 39.826-32.281 57.556-47.588-82.265 39.902-204.582 102.091-258.949 178.855z m-77.871-79.297l-4.634-3.556c-59.279-45.481-93.277-112.117-93.277-182.819 0-48.079 15.567-94.43 45.019-134.04 28.677-38.569 68.609-68.395 115.48-86.252l3.699-1.409 2.751 2.846c8.864 9.169 18.249 17.251 27.14 23.374l0.281 0.205c0.296 0.23 0.618 0.453 0.906 0.627l6.032 3.642-4.556 5.375c-8.528 10.062-17.551 21.952-26.818 35.342l-16.916 24.546 29.291 5.868c9.401 1.862 20.385 2.848 31.754 2.848 13.655 0 27.603-1.44 39.271-4.055 7.676-1.734 15.44-5.296 23.065-10.583l4.333-3.004 3.537 3.911c17.493 19.347 48.229 40.164 64.994 50.851l25.297 16.012 4.645-29.605c3.347-21.086 1.713-48.88-4.16-70.844l-0.187-0.623c-0.507-1.699-1.032-3.456-1.647-4.958l-2.038-4.975 4.722-2.57c8.586-4.672 18.225-10.515 28.648-17.365l3.268-2.147 3.284 2.123c39.113 25.276 69.795 59.759 88.73 99.72l1.402 2.96-1.731 2.781c-9.074 14.574-15.517 29.491-19.147 44.335l-0.731 2.989-2.854 1.15c-18.354 7.394-37.162 14.524-55.353 21.419-10.448 3.961-21.253 8.057-31.854 12.158-91.427 35.456-156.515 72.236-224.654 126.949-24.22 19.359-45.518 40.297-63.313 62.238l-3.679 4.536z m63.219-394.035c-90.732 36.098-149.13 117.211-149.13 207.661 0 65.115 30.549 126.657 84.028 169.719 17.547-20.948 38.168-40.938 61.372-59.484 68.246-54.798 136.382-93.313 227.822-128.773 10.643-4.118 21.467-8.221 31.935-12.189 17.201-6.521 34.958-13.252 52.306-20.199 3.779-14.107 9.861-28.203 18.115-41.981-17.533-35.607-45.007-66.521-79.752-89.743-7.723 4.999-15.014 9.44-21.766 13.261l0.296 0.986 0.257 0.867c6.292 23.475 8.037 53.27 4.445 75.905l-7.476 47.647-40.754-25.794c-19.758-12.595-46.265-31-63.941-49.182-7.524 4.626-15.213 7.844-22.918 9.585-12.697 2.845-27.184 4.348-41.906 4.348-12.139 0-23.93-1.065-34.099-3.08l-47.163-9.448 27.259-39.554c7.999-11.557 15.833-22.038 23.352-31.247-7.396-5.446-14.986-12.021-22.282-19.305z m-73.762 351.868l-10.871-27.764c-45.995-117.463-45.315-188.359 2.204-229.872l3.351-2.928 46.804 29.229-2.806 4.994c-24.026 42.768-35.735 103.38-37.968 196.533l-0.714 29.808z m-4.034-245.615c-36.258 34.764-38.322 92.738-6.13 185.235 3.835-75.182 15.107-127.651 35.648-166.801l-29.518-18.434z m685.548 180.287l-4.525-4.595c-11.791-11.971-27.194-31.957-33.621-59.19l-4.65-19.146-12.72 15.064c-19.134 22.938-38.296 32.896-50.998 37.206l-6.224 2.112-1.538-6.39c-4.864-20.219-5.342-39.797-1.419-58.19l3.678-17.176-16.602 5.757c-15.602 5.472-30.82 8.251-45.21 8.251h-0.003c-8.92 0-17.35-1.059-25.055-3.146l-6.095-1.651 1.96-6.002c5.052-15.475 21.098-45.255 71.787-70.842 15.528-7.897 30.972-13.121 45.885-15.519 6.461-1.097 12.847-1.658 18.93-1.658 7.405 0 14.618 0.831 21.438 2.469l10.644 2.517 1.368-10.794c2.46-17.533 3.224-37.698 2.219-58.396-0.601-10.563-1.628-20.813-2.968-29.591l-1.139-7.46 41.181 3.132-0.438 5.968c-0.822 11.208-2.607 24.708-5.161 39.04-3.972 21.593-9.354 42.92-15.571 61.709l-2.001 6.264 5.085 4.346c9.515 8.052 17.561 18.402 23.892 30.746 6.46 12.705 11.397 27.936 14.685 45.289 9.271 49.79-10.152 80.91-22.556 95.03l-4.258 4.846z m-36.715-108.733l10.238 42.154c4.996 21.169 16.073 37.549 25.896 48.636 10.551-14.216 22.932-40.334 15.599-79.718-3.072-16.219-7.642-30.371-13.578-42.045-5.595-10.909-12.656-20.021-20.979-27.063l-11.168-9.544 0.186-0.581-17.243-4.078c-5.924-1.423-12.193-2.142-18.656-2.142-5.412 0-11.122 0.504-16.974 1.497-13.732 2.208-27.985 7.044-42.417 14.384-40.519 20.452-56.832 43.06-63.393 57.659 4.853 0.85 9.999 1.278 15.372 1.279h0.003c13.033 0 26.914-2.551 41.258-7.582l36.746-12.744-8.136 38.001c-3.111 14.588-3.143 30.077-0.1 46.131 10.826-4.782 24.979-13.861 39.352-31.091l27.994-33.153z m15.886-174.535c0.901 7.264 1.592 15.075 2.061 23.318 0.796 16.387 0.52 32.456-0.788 47.228 3.251-12.125 6.115-24.838 8.471-37.646 2.037-11.432 3.57-22.307 4.492-31.818l-14.236-1.082zM464.308 340.416l-7.694-4.862c-1.878-1.187-46.21-29.314-64.479-51.101-3.347-3.951-5.884-8.857-7.587-14.661-11.554 12.607-23.032 20.252-34.222 22.773-10.977 2.462-22.825 3.71-35.223 3.71-17.362 0-29.607-2.45-30.12-2.554l-8.912-1.812 5.172-7.48c1.119-1.618 24.712-35.597 45.775-55.394-10.224-1.357-18.662-4.297-25.185-8.79-28.174-19.364-44.513-46.126-45.195-47.256l-4.683-7.761 8.973-1.279c1.266-0.18 31.297-4.418 58.112-4.418 9.637 0 17.75 0.563 24.115 1.674 9.371 1.639 18.613 7.312 27.591 16.913 2.247-15.874 8.323-31.093 19.645-50.179l3.064-5.166 41.25 24.531-3.072 5.158c-7.167 12.036-11.143 21.989-12.683 32.247 12.13-5.457 23.1-7.641 32.646-6.495 34.012 4.009 60.941 20.017 62.071 20.697l7.771 4.674-7.341 5.324c-1.617 1.173-36.231 26.177-62.889 37.584 5.284 6.499 8.854 13.094 10.647 19.685 8.867 33.038 4.093 63.95 3.886 65.25l-1.433 8.988z m-71.331-100.325l1.209 15.537c0.721 9.267 3.118 16.363 7.124 21.092 12.574 14.995 39.824 34.138 53.516 43.313 0.714-11.173 0.811-30.736-4.553-50.724-1.851-6.802-6.441-13.884-13.638-21.031l-6.97-6.921 9.339-3.042c18.634-6.068 46.476-24.233 60.043-33.521-10.101-4.834-28.256-12.236-48.869-14.666-9.548-1.149-21.321 2.245-35.042 9.958l-8.977 5.045 0.037-10.297c0.053-14.881 3.618-27.768 12.144-43.303l-20.632-12.27c-11.546 20.585-16.082 36.283-15.987 54.585l0.1 19.189-11.013-15.715c-9.98-14.241-20.256-22.643-29.717-24.297-5.683-0.991-13.103-1.495-22.05-1.495-16.938 0-35.676 1.813-46.729 3.084 6.669 8.992 19.258 24.014 36.324 35.744 7.271 5.008 18.182 7.546 32.435 7.546 0.761 0 1.519-0.007 2.278-0.021l25.794-0.478-22.936 11.811c-1.666 0.857-2.774 1.552-3.706 2.322l-0.168 0.134c-15.521 11.911-35.785 38.34-45.518 51.63 4.766 0.511 11.07 0.973 18.287 0.973 11.516 0 22.481-1.15 32.591-3.418 11.096-2.5 23.13-12.065 35.762-28.43l9.522-12.334z" fill="" /></svg>