<svg class="icon" style="width: 1em; height: 1em;vertical-align: middle;fill: currentColor;overflow: hidden;" viewBox="0 0 1024 1024" version="1.1" xmlns="http://www.w3.org/2000/svg"><path d="M512 682.666667c-145.066667 0-264.533333-119.466667-264.533333-264.533333l0-8.533333c0-8.533333 8.533333-17.066667 17.066667-17.066667l494.933333 0c8.533333 0 17.066667 6.826667 17.066667 17.066667l0 8.533333C776.533333 563.2 657.066667 682.666667 512 682.666667zM281.6 426.666667c5.12 122.88 105.813333 221.866667 230.4 221.866667 124.586667 0 225.28-98.986667 230.4-221.866667L281.6 426.666667zM418.133333 358.4c-10.24 0-17.066667-6.826667-17.066667-17.066667l0-51.2c0-10.24 6.826667-17.066667 17.066667-17.066667s17.066667 6.826667 17.066667 17.066667l0 51.2C435.2 351.573333 428.373333 358.4 418.133333 358.4zM622.933333 358.4c-10.24 0-17.066667-6.826667-17.066667-17.066667l0-51.2c0-10.24 6.826667-17.066667 17.066667-17.066667s17.066667 6.826667 17.066667 17.066667l0 51.2C640 351.573333 633.173333 358.4 622.933333 358.4zM520.533333 358.4c-10.24 0-17.066667-6.826667-17.066667-17.066667l0-85.333333c0-10.24 6.826667-17.066667 17.066667-17.066667s17.066667 6.826667 17.066667 17.066667l0 85.333333C537.6 351.573333 530.773333 358.4 520.533333 358.4zM349.866667 785.066667c-3.413333 0-5.12 0-8.533333-1.706667-8.533333-5.12-10.24-15.36-6.826667-23.893333l68.266667-119.466667c5.12-8.533333 15.36-10.24 23.893333-6.826667 8.533333 5.12 10.24 15.36 6.826667 23.893333l-68.266667 119.466667C361.813333 781.653333 354.986667 785.066667 349.866667 785.066667zM674.133333 785.066667c-5.12 0-11.946667-3.413333-15.36-8.533333l-68.266667-119.466667c-5.12-8.533333-1.706667-18.773333 6.826667-23.893333s18.773333-1.706667 23.893333 6.826667l68.266667 119.466667c5.12 8.533333 1.706667 18.773333-6.826667 23.893333C679.253333 785.066667 677.546667 785.066667 674.133333 785.066667z" /></svg>