<svg class="icon" style="width: 1em; height: 1em;vertical-align: middle;fill: currentColor;overflow: hidden;" viewBox="0 0 1024 1024" version="1.1" xmlns="http://www.w3.org/2000/svg"><path d="M764.810561 151.725305h-3.194771a281.221706 281.221706 0 0 0-499.26478 0h-3.19477C131.938847 151.725305 28.44672 255.217432 28.44672 382.434825c0 126.162709 101.771866 228.989259 227.545468 230.68904v268.657657A28.425264 28.425264 0 0 0 284.437932 910.227266h455.090937a28.425264 28.425264 0 0 0 28.445743-28.445744V613.123865c125.773602-1.689542 227.545468-104.526332 227.545468-230.68904 0-127.217393-103.492127-230.70952-230.709519-230.70952z m0 404.537792a175.886442 175.886442 0 0 1-21.779733-1.474509 28.804131 28.804131 0 0 0-22.332673 6.911763 28.425264 28.425264 0 0 0-9.61503 21.308708v270.32672H312.883675v-270.32672a28.445743 28.445743 0 0 0-31.947703-28.220471 175.886442 175.886442 0 0 1-21.779732 1.474509c-95.853349 0-173.828272-77.964683-173.828273-173.828272s77.964683-173.828272 173.828273-173.828273a171.176204 171.176204 0 0 1 17.776029 0.921569A28.671016 28.671016 0 0 0 305.930954 192.540544a224.360938 224.360938 0 0 1 412.094653 0c4.915031 11.35577 16.30152 17.970583 28.998684 17.028535a171.176204 171.176204 0 0 1 17.77603-0.921568c95.853349 0 173.828272 77.964683 173.828272 173.828273s-77.964683 173.787314-173.818032 173.787313zM739.528869 967.108513H284.437932a28.445743 28.445743 0 1 0 0 56.891487h455.090937a28.445743 28.445743 0 0 0 0-56.891487zM455.091913 512.017576a28.425264 28.425264 0 0 0-28.445743 28.445744V768.008788a28.445743 28.445743 0 1 0 56.891487 0V540.46332A28.425264 28.425264 0 0 0 455.091913 512.017576zM568.874887 512.017576A28.425264 28.425264 0 0 0 540.429144 540.46332V768.008788a28.445743 28.445743 0 1 0 56.891487 0V540.46332A28.425264 28.425264 0 0 0 568.874887 512.017576z" /></svg>