<?xml version="1.0" encoding="UTF-8" standalone="no"?>
<!DOCTYPE svg PUBLIC "-//W3C//DTD SVG 1.1//EN" "http://www.w3.org/Graphics/SVG/1.1/DTD/svg11.dtd">
<svg version="1.1" xmlns="http://www.w3.org/2000/svg" xmlns:xlink="http://www.w3.org/1999/xlink" preserveAspectRatio="xMidYMid meet" viewBox="0 0 640 640" width="640" height="640"><defs><path d="M65.86 264.77C49.02 192.9 76.98 142.57 140.15 110.96C225.14 68.4 300.23 109.88 303.82 185.27C304.33 196.02 360.19 217.73 359.74 208C352.32 52.8 159.55 32 60.99 119.23C-112.96 273.22 174.66 489.54 284.29 568.83C295.87 577.09 336 566.78 333.12 564.67C333.12 564.67 333.12 564.67 333.12 564.67C175.72 453.57 86.63 353.6 65.86 264.77Z" id="bgIXUDJC7"></path><path d="M509.31 137.41C617.66 103.04 586.62 246.34 564.35 289.66C518.91 377.98 408.99 477.38 336.79 543.36C322.39 556.48 371.41 557.89 387.28 543.36C477.39 461.06 653.5 337.54 631.55 198.78C622.85 143.62 570.24 101.57 517.31 95.42C442.24 86.72 384.73 151.23 336.79 198.78C328.2 207.29 330.5 223.17 344.13 230.1C352.84 234.53 362.48 235.99 368.42 230.1C368.42 230.1 374.71 224.76 387.28 214.08C429.51 175.38 470.19 149.82 509.31 137.41Z" id="b1ZaKatNbg"></path></defs><g><g><g><use xlink:href="#bgIXUDJC7" opacity="1" fill="#000000" fill-opacity="1"></use><g><use xlink:href="#bgIXUDJC7" opacity="1" fill-opacity="0" stroke="#000000" stroke-width="1" stroke-opacity="0"></use></g></g><g><use xlink:href="#b1ZaKatNbg" opacity="1" fill="#000000" fill-opacity="1"></use><g><use xlink:href="#b1ZaKatNbg" opacity="1" fill-opacity="0" stroke="#000000" stroke-width="1" stroke-opacity="0"></use></g></g></g></g></svg>