<?xml version="1.0" encoding="utf-8"?>
<!-- Svg Vector Icons : http://www.onlinewebfonts.com/icon -->
<!DOCTYPE svg PUBLIC "-//W3C//DTD SVG 1.1//EN" "http://www.w3.org/Graphics/SVG/1.1/DTD/svg11.dtd">
<svg version="1.1" xmlns="http://www.w3.org/2000/svg" xmlns:xlink="http://www.w3.org/1999/xlink" x="0px" y="0px" viewBox="0 0 1000 1000" enable-background="new 0 0 1000 1000" xml:space="preserve">
<metadata> Svg Vector Icons : http://www.onlinewebfonts.com/icon </metadata>
<g><path d="M504.7,855.4"/><path d="M500,906.2c-4.7,0-10.3-0.9-15-2.8C5.4,695.6,9.2,395.6,10.1,367.4C11,218.8,140.8,93.8,295,93.8c82.7,0,158.9,36.7,210.6,98.7c52.7-61.1,134.5-98.7,218.2-98.7c148.6,0,265.2,120.4,266.1,273.6c0.9,27.3,4.7,328.2-474.9,535C510.3,905.3,504.7,906.2,500,906.2z M295,169c-113.8,0-209.7,91.2-209.7,200.3c0,0.9,0,1.9,0,2.8C84.4,382.5,75,638.2,500,827.2c425-189.9,415.6-445.7,414.7-456c0-0.9,0-1.9,0-2.8c0-113.8-81.8-199.3-190.9-199.3c-77.1,0-152.3,43.3-185.2,107.2c-6.6,12.2-19.7,19.7-32.9,19.7s-26.3-7.5-32.9-19.7C437,210.4,369.3,169,295,169z"/></g>
</svg>