<?xml version="1.0" encoding="UTF-8" standalone="no"?>
<!DOCTYPE svg PUBLIC "-//W3C//DTD SVG 1.1//EN" "http://www.w3.org/Graphics/SVG/1.1/DTD/svg11.dtd">
<svg version="1.1" xmlns="http://www.w3.org/2000/svg" xmlns:xlink="http://www.w3.org/1999/xlink" preserveAspectRatio="xMidYMid meet" viewBox="0 0 640 640" width="640" height="640"><defs><path d="M308.42 566.84L288.42 556.32L269.47 546.84L251.58 534.21L232.63 520.53L215.79 507.89L203.16 492.11L187.37 474.21L174.74 457.37L160 440.53L147.37 422.63L131.58 410L115.79 396.32L104.21 378.42L87.37 363.68L73.68 347.89L62.11 330L52.63 311.05L45.26 292.11L41.05 271.05L37.89 250L33.68 230L33.68 208.95L36.84 187.89L47.37 170L58.95 153.16L67.37 133.16L86.32 118.42L106.32 108.95L127.37 101.58L147.37 94.21L168.42 90L188.42 86.84L208.42 83.68L229.47 83.68L251.58 83.68L274.74 91.05L289.47 104.74L300 122.63L309.47 140.53L318.95 159.47L329.47 178.42L343.16 193.16L364.21 197.37L378.95 181.58L395.79 167.89L411.58 154.21L428.42 142.63L446.32 130L465.26 120.53L485.26 114.21L505.26 112.11L527.37 112.11L547.37 116.32L566.32 123.68L581.05 137.37L592.63 157.37L597.89 177.37L601.05 197.37L603.16 217.37L605.26 238.42L605.26 260.53L601.05 281.58L590.53 299.47L578.95 316.32L569.47 334.21L560 354.21L547.37 372.11L532.63 385.79L517.89 401.58L500 418.42L485.26 433.16L469.47 446.84L452.63 461.58L440 477.37L424.21 492.11L408.42 504.74L394.74 520.53L380 534.21L362.11 543.68L344.21 553.16L325.26 560.53L304.21 563.68L283.16 563.68L274.74 542.63" id="a4IbusMGlv"></path><path d="M140.15 110.96C225.14 68.4 300.23 109.88 303.82 185.27C304.33 196.02 360.19 217.73 359.74 208C352.32 52.8 159.55 32 60.99 119.23C-112.96 273.22 174.66 489.54 284.29 568.83C295.87 577.09 336 566.78 333.12 564.67C333.12 564.67 333.12 564.67 333.12 564.67C175.72 453.57 86.63 353.6 65.86 264.77C49.02 192.9 76.98 142.57 140.15 110.96Z" id="hNgFBfqsy"></path><path d="M140.15 110.96C225.14 68.4 300.23 109.88 303.82 185.27C304.33 196.02 360.19 217.73 359.74 208C352.32 52.8 159.55 32 60.99 119.23C-112.96 273.22 174.66 489.54 284.29 568.83C295.87 577.09 336 566.78 333.12 564.67C333.12 564.67 333.12 564.67 333.12 564.67C175.72 453.57 86.63 353.6 65.86 264.77C49.02 192.9 76.98 142.57 140.15 110.96Z" id="ec3eykpbf"></path><path d="M564.35 289.66C518.91 377.98 408.99 477.38 336.79 543.36C322.39 556.48 371.41 557.89 387.28 543.36C477.39 461.06 653.5 337.54 631.55 198.78C622.85 143.62 570.24 101.57 517.31 95.42C442.24 86.72 384.73 151.23 336.79 198.78C328.2 207.29 330.5 223.17 344.13 230.1C352.84 234.53 362.48 235.99 368.42 230.1C368.42 230.1 374.71 224.76 387.28 214.08C429.51 175.38 470.19 149.82 509.31 137.41C617.66 103.04 586.62 246.34 564.35 289.66Z" id="cxM9SCZTN"></path><path d="M564.35 289.66C518.91 377.98 408.99 477.38 336.79 543.36C322.39 556.48 371.41 557.89 387.28 543.36C477.39 461.06 653.5 337.54 631.55 198.78C622.85 143.62 570.24 101.57 517.31 95.42C442.24 86.72 384.73 151.23 336.79 198.78C328.2 207.29 330.5 223.17 344.13 230.1C352.84 234.53 362.48 235.99 368.42 230.1C368.42 230.1 374.71 224.76 387.28 214.08C429.51 175.38 470.19 149.82 509.31 137.41C617.66 103.04 586.62 246.34 564.35 289.66Z" id="c1NUTYFw8S"></path></defs><g><g><g><use xlink:href="#a4IbusMGlv" opacity="1" fill="#ffa500" fill-opacity="1"></use><g><use xlink:href="#a4IbusMGlv" opacity="1" fill-opacity="0" stroke="#000000" stroke-width="1" stroke-opacity="1"></use></g></g><g><use xlink:href="#hNgFBfqsy" opacity="1" fill="#000000" fill-opacity="1"></use><g><use xlink:href="#hNgFBfqsy" opacity="1" fill-opacity="0" stroke="#000000" stroke-width="1" stroke-opacity="0"></use></g></g><g><use xlink:href="#ec3eykpbf" opacity="1" fill="#000000" fill-opacity="0"></use><g><use xlink:href="#ec3eykpbf" opacity="1" fill-opacity="0" stroke="#000000" stroke-width="1" stroke-opacity="0"></use></g></g><g><use xlink:href="#cxM9SCZTN" opacity="1" fill="#000000" fill-opacity="1"></use><g><use xlink:href="#cxM9SCZTN" opacity="1" fill-opacity="0" stroke="#000000" stroke-width="1" stroke-opacity="0"></use></g></g><g><use xlink:href="#c1NUTYFw8S" opacity="1" fill="#000000" fill-opacity="0"></use><g><use xlink:href="#c1NUTYFw8S" opacity="1" fill-opacity="0" stroke="#000000" stroke-width="1" stroke-opacity="0"></use></g></g></g></g></svg>