<svg xmlns="http://www.w3.org/2000/svg" viewBox="1000 350 1 300">
    <g>
   <path class="st0" d="M1018,625.1c-1.4,0-2.7-1-2.9-2.5c0-0.1-2.2-14-4.5-24.9c-0.3-1.3,0.4-2.6,1.5-3.2c1-0.5,2.1-1,3.1-1.6   c13.4-6.6,25-12.3,28.9-37.1c1.7-10.8-1.2-20.4-8.5-28.7c-5.6-6.3-11.8-9.4-11.8-9.4c-0.9-0.4-1.5-1.3-1.6-2.3   c-0.1-1,0.2-1.9,1-2.6c5.9-5.1,8.6-9.4,8.4-13.2c-0.4-5.9-8.1-11.5-16.2-16.7c-13.9-8.8-17.2-26.5-17.2-29.4c0-1,0-2.8,8.7-12.2   c0.6-0.6,1.4-1,2.2-0.9c0.8,0,1.6,0.4,2.2,1.1c0,0.1,5,6,11.1,7.7c9-2.5,15.8-12.9,17.7-19.6c0.4-1.6,2.1-2.4,3.6-2   c1.6,0.4,2.4,2.1,2,3.6c-2.2,7.7-10.4,21.1-22.7,23.9c-0.4,0.1-0.9,0.1-1.3,0c-5.5-1.2-10.1-4.9-12.7-7.4c-2.2,2.5-4.4,5.1-5,6.3   c0.4,2.5,3,16.9,14.4,24.2c10.9,7,18.4,13.2,18.9,21.2c0.4,5-2.1,10-7.4,15.4c2.6,1.7,6.4,4.6,9.9,8.5c8.5,9.5,11.9,21.1,10,33.6   c-4.3,27.8-18.4,34.8-32.1,41.5c-0.4,0.2-0.7,0.4-1.1,0.5c2.2,10.6,4.1,22.8,4.1,22.9c0.3,1.6-0.8,3.1-2.4,3.3   C1018.3,625.1,1018.1,625.1,1018,625.1z M1003.8,454.2L1003.8,454.2L1003.8,454.2z"/>
	<path class="st0" d="M958.9,618.2c-1.1,0-2.2-0.6-2.7-1.7c-3.6-7.9-5.6-14-4.9-22c0.7-8.1,4.1-17.5,11.5-31.4   c10.2-19.3,7.7-28.3,2.5-46c-1.8-6.4-3.9-13.7-5.9-22.9c-3.2-14.9-1.9-27.5,3.8-37.4c4.6-8.1,10.7-12,13.3-13.7   c0.3-0.2,0.5-0.3,0.7-0.4c2.4-1.7,9.1-10.9,9.9-12.7c0.5-1.5,2.1-2.3,3.6-1.9c1.6,0.4,2.4,2.1,2,3.6c-0.7,2.4-8.6,13.3-12.1,15.8   c-0.2,0.2-0.5,0.3-0.9,0.6c-14.1,9-18.9,24.1-14.5,44.9c1.9,9,4,16.2,5.8,22.5c2.6,9.2,4.7,16.4,4.7,24.1c0,8.1-2.4,16.2-7.7,26.3   c-13.9,26.3-12.8,34.5-6.5,48.2c0.7,1.5,0,3.2-1.4,3.9C959.7,618.1,959.3,618.2,958.9,618.2z M987.1,429.9   C987.1,430,987.1,430,987.1,429.9C987.1,430,987.1,430,987.1,429.9z"/>
	<path class="st0" d="M985.3,560.6c-0.2,0-0.5,0-0.7-0.1c-1.9-0.5-4.1-2.1-7-11.2c-1.8-5.6-3.5-13.2-4.8-21.4   c-3.2-19.3-4.1-38.2-2.2-50.5c0.2-1.6,1.7-2.7,3.3-2.5c1.6,0.2,2.7,1.7,2.5,3.3c-1.7,11.2-1,28.7,1.9,46.8c1.2,7.7,2.8,15,4.4,20.6   c1.7,6,3,8.2,3.5,9c9.5-1.3,27.6-13.7,33.9-18.6c0.8-0.6,2-0.8,3-0.3c0,0,1.2,0.6,7.3,3.3c3.8,1.6,6.6,2,7.8,1c1.3-1.1,1.3-4,1-5.9   c-1.8-1.4-6.9-4.9-13.7-5.9c-8.3,3.4-28.7,12.6-29,12.7c-0.9,0.4-1.9,0.3-2.8-0.2c-0.8-0.5-1.3-1.5-1.3-2.4c0-0.2,0-17.3,2.3-37   c3.2-26.7-2.3-32.7-5.6-36.3c-0.2-0.2-0.3-0.4-0.5-0.6c-1.1-1.2-1-3.1,0.2-4.1c1.2-1.1,3.1-1,4.1,0.2c0.2,0.2,0.3,0.3,0.5,0.5   c1.9,2,4.6,5.1,6.4,11.5c2,7.1,2.2,16.8,0.7,29.5c-1.6,13.4-2.1,25.5-2.2,31.8c6.7-3,19.8-8.8,25.7-11.2c0.4-0.2,0.9-0.2,1.4-0.2   c10.8,1.2,18.1,7.8,18.4,8.1c0.4,0.4,0.7,0.9,0.9,1.5c0.2,0.9,1.8,8.7-2.8,12.6c-3.1,2.6-7.8,2.5-13.9-0.1c0,0,0,0-0.1,0   c-2.8-1.3-4.6-2.1-5.7-2.6c-2.3,1.7-7,5-12.6,8.5c-10.6,6.6-18.7,10-24.2,10.3C985.4,560.6,985.4,560.6,985.3,560.6z"/>
	<path class="st0" d="M968.6,457c-0.8,0-1.6-0.3-2.2-1c-1.1-1.2-1-3.1,0.2-4.1c4.6-4.1,8.9-14.7,9.5-23.2c0-0.5,0.1-1,0.1-1.5   c0.6-10.8,2.3-39.5,32.6-49.1c16.8-5.3,27.8,0.9,34.1,7c5.1,4.9,7.9,10.5,9,13.1c3.2,1.3,6.5,4.3,8.7,8.1c2.6,4.4,3.4,9.2,2.2,13.5   c-1.8,6.2-5.7,10.2-12,12.1c-5.1,1.6-11.2,1.6-17.1,1.6c-7.4,0-15,0.1-19.5,3.4c-1,0.8-2.5,0.8-3.5,0c-0.6-0.4-0.9-1-1.1-1.6   c-5.6,5.4-10.2,11.3-10.9,18.8c-0.1,1.3-1,2.3-2.2,2.6c-1.2,0.3-2.5-0.2-3.2-1.3c-3.8-6.2-7.5-27.7-6-34.9c0.3-1.6,1.9-2.6,3.5-2.3   c1.6,0.3,2.6,1.9,2.3,3.5c-0.8,3.9,0.5,14.6,2.4,22.5c3.6-7.5,10.2-13.4,16.2-18.7c1.3-1.2,2.6-2.3,3.8-3.4c1.2-1.1,2.9-1,4.1,0.1   c1.1,1.1,1.1,2.9,0.1,4.1c-0.3,0.4-0.9,1.4-1.5,2.7c4.8-1.2,10.3-1.2,15.6-1.2c13-0.1,21-0.7,23.5-9.5c1-3.6-0.6-7.1-1.6-8.9   c-2-3.3-4.8-5.5-6.5-5.9c-1-0.2-1.8-0.9-2.1-1.9c0-0.1-2.5-6.8-8.2-12.3c-7.5-7.1-16.9-9-28.1-5.4c-26.4,8.4-27.9,33.2-28.5,43.8   c0,0.6-0.1,1.1-0.1,1.6c-0.7,10.1-5.7,22-11.4,27.2C970,456.7,969.3,457,968.6,457z"/>
</g>
</svg>